inDegrees=no
num_controls=7
num_derivatives=13
num_iterations=157
num_multipliers=7
num_parameters=0
num_slacks=7
num_states=26
objective=0.497309
objective_accelerations=0.038460
objective_balance=0.003402
objective_effort=0.036958
objective_height=0.413847
objective_ligament=0.004642
solver_duration=1823.800687
status=Solve_Succeeded
success=true
DataType=double
version=3
OpenSimVersion=4.5
endheader
time	/jointset/ground_pelvis/pelvis_tilt/value	/jointset/ground_pelvis/pelvis_tx/value	/jointset/ground_pelvis/pelvis_ty/value	/jointset/hip_r/hip_flexion_r/value	/jointset/hip_r/hip_adduction_r/value	/jointset/hip_r/hip_rotation_r/value	/jointset/back/lumbar_extension/value	/jointset/patellofemoral_r/patellar_flexion_r/value	/jointset/knee_r/knee_flexion_r/value	/jointset/knee_r/knee_adduction_r/value	/jointset/knee_r/knee_rotation_r/value	/jointset/ankle_r/ankle_angle_r/value	/jointset/subtalar_r/subtalar_angle_r/value	/jointset/ground_pelvis/pelvis_tilt/speed	/jointset/ground_pelvis/pelvis_tx/speed	/jointset/ground_pelvis/pelvis_ty/speed	/jointset/hip_r/hip_flexion_r/speed	/jointset/hip_r/hip_adduction_r/speed	/jointset/hip_r/hip_rotation_r/speed	/jointset/back/lumbar_extension/speed	/jointset/patellofemoral_r/patellar_flexion_r/speed	/jointset/knee_r/knee_flexion_r/speed	/jointset/knee_r/knee_adduction_r/speed	/jointset/knee_r/knee_rotation_r/speed	/jointset/ankle_r/ankle_angle_r/speed	/jointset/subtalar_r/subtalar_angle_r/speed	/forceset/tau_hip_flexion_r	/forceset/tau_hip_adduction_r	/forceset/tau_hip_rotation_r	/forceset/tau_knee_flexion_r	/forceset/tau_ankle_angle_r	/forceset/tau_subtalar_angle_r	/forceset/tau_lumbar_extension	lambda_cid13_p0	lambda_cid14_p0	lambda_cid14_p1	lambda_cid14_p2	lambda_cid14_p3	lambda_cid14_p4	lambda_cid14_p5	/jointset/ground_pelvis/pelvis_tilt/accel	/jointset/ground_pelvis/pelvis_tx/accel	/jointset/ground_pelvis/pelvis_ty/accel	/jointset/hip_r/hip_flexion_r/accel	/jointset/hip_r/hip_adduction_r/accel	/jointset/hip_r/hip_rotation_r/accel	/jointset/back/lumbar_extension/accel	/jointset/patellofemoral_r/patellar_flexion_r/accel	/jointset/knee_r/knee_flexion_r/accel	/jointset/knee_r/knee_adduction_r/accel	/jointset/knee_r/knee_rotation_r/accel	/jointset/ankle_r/ankle_angle_r/accel	/jointset/subtalar_r/subtalar_angle_r/accel	gamma_cid13_p0	gamma_cid14_p0	gamma_cid14_p1	gamma_cid14_p2	gamma_cid14_p3	gamma_cid14_p4	gamma_cid14_p5
0	-0.006515433547387619	0.09626032200386936	0.9427240650618112	0.1762555222360518	-0.2321527788623238	-0.2616406347571212	-0.038598046466844	0.07317863873451012	0.07317863873451017	0.1745329251994329	0.1745329119979563	0.03247278518263602	-0.003452072147186364	0	0	0	0	0	0	0	0	0	0	0	0	0	0.2298397749094564	-0.1824067554702647	-0.04754957491614415	-0.4293594777521731	0.4441500236975941	-0.1400141649216887	-0.1223983189300078	-39.07630754819527	93.38787266927899	-34.75465983558774	-5.08115121176766	-48.6640059049826	-678.2890039700577	67.99867122434785	-1.556035856159706	-0.6891577151349559	-0.5491796766252118	7.747504698608147	-0.08144552571667141	2.474871634745269	-4.658088706879511	8.988072540270984	8.988072540270933	-2.252921457560795	0.1681009154326392	3.495240824464318	0.6961329356723616	7.248872478087842e-08	1.610406409026614e-08	-5.699820291532718e-07	1.504070763455629e-07	4.335446753524215e-08	-1.401510416039448e-08	-2.798795462130184e-07
0.01	-0.006587243275763279	0.09622590604875826	0.942697670372882	0.176630055960006	-0.2321556568601705	-0.2615097648967321	-0.03883340273406467	0.07361513938997973	0.07361513938997973	0.1744204755837879	0.1745304683419746	0.03264276837941363	-0.003417196266198459	-0.01428977107733609	-0.00690710851817259	-0.005268232666986959	0.07462080521900084	-0.0005981258802044273	0.0260393445016397	-0.04678655045301971	0.0869074116808531	0.08690741168085506	-0.02232460902233669	-0.000478028707038678	0.03376361982427006	0.006898839675525919	0.2228724932672409	-0.1890145641967089	-0.04552055584363163	-0.4180800636547671	0.4248224996049326	-0.1273985698948249	-0.1171257920188811	-39.09092469701246	87.61486213812657	-30.33577813801474	-5.729376525789198	-44.62239124987642	-678.6744848221035	75.95339339462726	-1.354619826997757	-0.6950663736505973	-0.5140420969262278	7.276478364661875	-0.05243386099456405	2.648311049475047	-4.646232765843144	8.483153072296712	8.483153072296988	-2.197404822033625	-0.154102119755021	3.281979852380274	0.675237071588104	1.019974462941958e-07	1.263678527787629e-08	-7.971698381512482e-07	1.504802574323628e-07	7.210297127426426e-08	-1.593627848372434e-07	-3.464722663243104e-07
0.02	-0.006799785133607345	0.096121703217767	0.9426189139502446	0.1777422197223739	-0.2321652036651837	-0.2611225325530066	-0.03952808341608145	0.07490892968031804	0.07490892968031815	0.1740897416345134	0.1745235749277251	0.03314339923262825	-0.003315636470836198	-0.02814642589375993	-0.01395737517603265	-0.01047234674161992	0.1475260076826338	-0.001333761433298562	0.05127249666734839	-0.09186488295923709	0.1714579269738757	0.171457926973878	-0.04365618594321417	-0.0008899516533933163	0.06612953128741743	0.01333678287486778	0.215905211625026	-0.195622372923152	-0.04349153677111459	-0.4068006495573623	0.4054949755122711	-0.11478297486796	-0.1118532651077535	-39.1341872857357	81.91952280888091	-25.92134163760918	-6.356281136566361	-40.78314148556039	-677.9015536461548	83.70379287259786	-1.469412603977257	-0.7177893430724471	-0.5363559581544131	7.404384147534575	-0.1089474602946152	2.313633167559061	-4.316445117519043	8.51669326270488	8.516693262704512	-2.054315037268948	0.1813220675694505	3.215699152239784	0.6039536404355471	1.315061678075132e-07	9.169506465486443e-09	-1.024357647149225e-06	1.505534385191626e-07	1.008514750132864e-07	-3.047104655140923e-07	-4.130649864356024e-07
0.03	-0.007148979201063862	0.0959467666103004	0.9424882270028629	0.1795748774409558	-0.2321830520242487	-0.2604884022994968	-0.04066443105254954	0.07703736525759076	0.0770373652575907	0.1735513104103701	0.1745143755466801	0.03396152505889048	-0.003152058304845833	-0.04160762016221271	-0.02100391245803813	-0.01566795273030335	0.2186585530348555	-0.002271344077297454	0.07542644796448095	-0.1351009062035822	0.2538631342539801	0.2538631342539923	-0.063822693749474	-0.0009520738977972635	0.09733334611897196	0.01930564618485564	0.2096086538983932	-0.1934890874790597	-0.04178943576257736	-0.3987555324794065	0.3932503763806956	-0.1113666249907815	-0.1069138396803916	-39.20496125016977	78.1508803243775	-25.13931698521212	-6.433173039645969	-38.43009601184168	-677.4331600758986	84.22915189877806	-1.271748822483522	-0.6941605554219445	-0.5116609479203924	6.915644631750049	-0.09159920608034165	2.447260482169531	-4.281620208270387	8.047499906218381	8.047499906219963	-1.966860328851313	-0.1002366654864695	3.04840167557193	0.5822280515943338	1.448326981509602e-07	2.207688172795018e-09	-1.132466509401595e-06	1.421133289039901e-07	1.196140993484663e-07	-4.150346129396465e-07	-4.429519764489583e-07
0.04	-0.007630240408045059	0.09570214970308226	0.9423054843898553	0.1821084515935977	-0.2322113633176792	-0.2596165356587398	-0.04222402677753657	0.07997886599677415	0.07997886599677385	0.1728174057728565	0.1745045034841853	0.03508682483886	-0.002931016430692782	-0.05455985379883362	-0.02789343512633626	-0.02088347986681285	0.2877092944944406	-0.003426348306408688	0.09881977411678039	-0.1765145006630528	0.3340709593562907	0.3340709593563098	-0.08275086861760649	-0.001024487943847401	0.1275643220288722	0.02482952450740068	0.2033120961717611	-0.1913558020349669	-0.04008733475403114	-0.3907104154014545	0.3810057772491188	-0.1079502751136029	-0.1019744142530274	-39.30179039865788	74.4532134853677	-24.36018723334486	-6.492100965740894	-36.26485668353821	-675.9099239513572	84.56951424876705	-1.367620477610883	-0.6863864203309739	-0.5403401877196262	6.988023369007288	-0.1524317773170858	2.161508138592437	-3.951959360544123	8.077216827146113	8.077216827145163	-1.806648449643477	0.1792637072402131	3.021131367908934	0.5149566429469776	1.578255750682243e-07	-4.826182480314999e-09	-1.238120135638591e-06	1.334976875217665e-07	1.381708292629484e-07	-5.246366256589885e-07	-4.720821472850372e-07
0.05	-0.008239003571826423	0.09538935618727459	0.9420702964630494	0.1853230595505563	-0.2322521860658422	-0.2585161184622999	-0.04418850073751857	0.08371215641263148	0.08371215641263186	0.1719003058033027	0.1744953846531077	0.03650966878258122	-0.002656777114071247	-0.06712158919128546	-0.03464374796920221	-0.02616897115448069	0.3548849069227282	-0.004753425819131987	0.1211296326012705	-0.21610041237912	0.4122102715628378	0.4122102715628465	-0.1004839346866685	-0.0008160006017503175	0.1568328166190704	0.02996493200773064	0.1969448946299839	-0.183657138704937	-0.03833203195278279	-0.3833929790383162	0.3702717645023328	-0.1093011029056752	-0.09700738244977626	-39.42300122437933	71.02390575560617	-25.5950165322053	-6.240730526270446	-34.0340559247588	-674.8707031577611	80.82600246230398	-1.189758011583053	-0.6660979222446671	-0.5249892613045486	6.533224516307958	-0.1252779736242207	2.245672570171143	-3.919925234001789	7.625728909447535	7.625728909446596	-1.729038753212006	-0.06079747897157579	2.853988352638229	0.50464241342852	1.574996952466365e-07	-1.175934705658178e-08	-1.234746981277588e-06	1.193317794221644e-07	1.460048154644415e-07	-6.006122000836509e-07	-4.675681364449513e-07
0.06	-0.008971245677835998	0.09500971070184221	0.9417817864909639	0.1891996024991119	-0.2323067660362074	-0.2571966131076564	-0.0465404374460339	0.08821552804896213	0.08821552804896253	0.1708113945595234	0.1744878629501173	0.03822005364181699	-0.002332821800475902	-0.07925564224456583	-0.04126382905127826	-0.03154788892272881	0.4200962928137539	-0.00617779274682595	0.1426374057575146	-0.254007050369738	0.4880872034509252	0.4880872034509299	-0.1171131234627083	-0.0007050623262944477	0.1850725051317873	0.03477272390216125	0.1905776930882071	-0.1759584753749067	-0.03657672915153681	-0.3760755426751781	0.3595377517555468	-0.1106519306977471	-0.0920403506465242	-39.56661966667235	67.65968662534969	-26.83591858488656	-5.968437002847266	-31.97383190535119	-672.8630998692774	76.9063697081113	-1.282084009776585	-0.6603400681729945	-0.55902548383568	6.595178061554942	-0.1718896603112212	2.001091072943256	-3.616104615454289	7.624740763454137	7.624740763454493	-1.585872991039027	0.1597538939119706	2.815370152412674	0.4494335217671061	1.566130256676234e-07	-1.868827137698147e-08	-1.226783225628249e-06	1.049321758818306e-07	1.533873177201244e-07	-6.751719244748532e-07	-4.616375284816584e-07
0.07000000000000001	-0.009823110092263134	0.09456456086997472	0.9414388492834581	0.1937192072057854	-0.2323761939720911	-0.2556674729333513	-0.04926265904433398	0.09346728127900454	0.09346728127900543	0.1695619913459184	0.174482539534673	0.04020799000951138	-0.001962461998170568	-0.09104400860248692	-0.04773773020778842	-0.03706347578913046	0.4834924163269028	-0.007718473597032665	0.1630589704270592	-0.2901627865847731	0.5618919238830227	0.5618919238830277	-0.1325817005931334	-0.000385273115830042	0.2123536429869786	0.03925310426791642	0.1840295753450201	-0.1714414172714747	-0.03470580035301808	-0.3694893347473516	0.3487172207197446	-0.1087538983185302	-0.08691229143142624	-39.73048547686356	64.36360647719326	-26.67552395358323	-5.894860901750563	-30.03656337722444	-671.3213604736353	75.78015580866574	-1.116211505849736	-0.6366233052789825	-0.551549707790593	6.161997818873778	-0.1469045119611121	2.042988118083683	-3.574135718699158	7.202578570041849	7.202578570041697	-1.499658335852445	-0.03569372258212707	2.660344029124385	0.4402404346227777	1.464571904773721e-07	-2.419057704401089e-08	-1.138721028652252e-06	8.887543953194626e-08	1.519490890188393e-07	-7.174547105395418e-07	-4.314842763091899e-07
0.08	-0.0107906578816792	0.09405553039336434	0.9410400113233388	0.1988628068121262	-0.2324613781593939	-0.2539380573215261	-0.05233820352361857	0.09944592989075945	0.09944592989076019	0.1681634407086466	0.1744796569798925	0.04246390944116812	-0.001548718364079074	-0.1023923172424031	-0.05403995799985672	-0.04272803944546173	0.5448952727472082	-0.009329043030668024	0.1826924932615489	-0.3246716265666502	0.6334662797932927	0.6334662797932973	-0.1469426081958858	-0.0002168901931976248	0.2386691179242514	0.04344949025939369	0.1774814576018326	-0.1669243591680429	-0.0328348715545057	-0.3629031268195244	0.3378966896839424	-0.1068558659393135	-0.08178423221632836	-39.91221843524112	61.12608828323933	-26.51739504220575	-5.806622676131393	-28.25316196240651	-668.9107889342969	74.50239218839893	-1.194072466175591	-0.6260053952846212	-0.5888208418216051	6.196524642986237	-0.1858673769969522	1.84348270593229	-3.286725368822697	7.178667859088691	7.178667859088907	-1.364339085504455	0.1294726363455735	2.622237568828978	0.3926346469115245	1.357033446025249e-07	-2.960084279791965e-08	-1.045491190300341e-06	7.271179138789737e-08	1.499417809009755e-07	-7.576551134863909e-07	-3.997682728974198e-07
0.09	-0.01187001369864385	0.09348434097138604	0.9405836389841545	0.204611372607077	-0.2325630495049144	-0.2520176191808641	-0.05575028657170802	0.1061299914020495	0.1061299914020504	0.1666268883910959	0.174479215960707	0.04497837846980682	-0.001094393356071345	-0.1134148235962286	-0.06016654516826135	-0.04857698971942028	0.6044930953239117	-0.01100430205370595	0.2012613262437098	-0.357481854707401	0.7029687737661442	0.7029687737661429	-0.160197395383636	9.753336216720259e-05	0.2640648786267976	0.04738213373696571	0.170985218990537	-0.1634711501749526	-0.03095502264831869	-0.3572542581970658	0.3276637901808983	-0.1038065893959736	-0.07667439782621072	-40.10930789770674	58.08543483958498	-25.83381801752567	-5.791867838787255	-26.58156813416899	-667.0606077608704	74.28854780589111	-1.046718011825526	-0.6012482375756094	-0.5876685001128705	5.792695956861111	-0.1583352865350897	1.843549943032223	-3.238702285121523	6.779425894720055	6.779425894719036	-1.280632654292131	-0.02219729086226961	2.474297242237673	0.3884185086048178	1.189338157114022e-07	-3.086209440629458e-08	-8.861615410417374e-07	6.830945165669205e-08	1.394694885183635e-07	-7.692063430922606e-07	-3.583069847082699e-07
